<?xml version="1.0" encoding="utf-8"?>
<!-- Generator: Adobe Illustrator 23.0.1, SVG Export Plug-In . SVG Version: 6.00 Build 0)  -->
<svg version="1.2" baseProfile="tiny" id="Layer_1" xmlns="http://www.w3.org/2000/svg" xmlns:xlink="http://www.w3.org/1999/xlink"
	 x="0px" y="0px" viewBox="0 0 100 79" xml:space="preserve">
<path fill="#F99191" d="M28.2,10.4C19.3,18.2,14.8,28,15.7,40c-0.6-3.8-1.3-7.3-3.9-10.5c-1.9-2.3-2.6-5.7-1.6-8.6
	c1.4-4,2.8-7.5,0.1-11.9c-1.5-2.3,1-5,3.7-6.2c2.7-1.2,5.8-0.4,6.5,1.9C21.8,8.8,25,9.3,28.2,10.4z"/>
<path fill="#F99191" d="M65.6,64.8c6-4.4,10.9-9.6,13.6-16.7c3.4,3.7,6.1,7.7,3.9,13.1C80.8,66.8,72.7,71.4,65.6,64.8z"/>
<path fill="#F99191" d="M83.4,9.3c3.2,0.5,5.4,2.2,5.4,5.5c0,3.5-2.2,5.7-5.7,5.5c-3.2-0.1-5.3-2.3-5.2-5.6
	C78,11.4,80.2,9.7,83.4,9.3z"/>
<path fill="#F99191" d="M84.1,76.1c-2.6-0.6-4.4-2.1-4.1-4.9c0.3-2.7,2.1-4.3,4.9-4c2.4,0.3,4,2,3.9,4.5
	C88.6,74.4,86.8,75.8,84.1,76.1z"/>
<path fill="#F99191" d="M3.2,1.3c2.1,0.2,3.6,1.4,3.6,3.4S5.4,8.2,3.3,8.2C1.5,8.2,0.2,6.9,0,5.1C-0.2,2.9,1.3,1.8,3.2,1.3z"/>
<path fill="#F99191" d="M99,69c-0.2,1.7-1.1,2.9-2.7,3c-1.9,0.1-3.2-1-3.2-2.9c0-1.9,1.2-3.1,3.2-3C97.9,66.2,98.8,67.3,99,69z"/>
<path fill="#F99191" d="M13.5,55.9c1.5,0.3,2.5,1.1,2.3,2.7c-0.1,1.3-1.1,2.2-2.4,2.1c-1.5-0.1-2.5-1-2.4-2.6
	C11.3,56.8,12.2,56.2,13.5,55.9z"/>
<path fill="#F99191" d="M48.4,68c-17.1,0-30.5-13.3-30.6-30.3C17.7,20.4,31.1,6.9,48.5,7C65.6,7,79,20.3,79.1,37.3
	C79.1,54.6,65.7,68,48.4,68z"/>
<path fill="#434543" d="M41.6,51.4l-0.9-0.8c-0.6-0.5-0.6-1.4-0.1-2l23-24.8c0.5-0.6,1.4-0.6,2-0.1l0.9,0.8c0.6,0.5,0.6,1.4,0.1,2
	l-23,24.8C43.1,51.9,42.2,51.9,41.6,51.4z"/>
<path fill="#434543" d="M44.3,50.7l-0.8,0.9c-0.5,0.6-1.4,0.6-2,0.1l-10-9.3c-0.6-0.5-0.6-1.4-0.1-2l0.8-0.9c0.5-0.6,1.4-0.6,2-0.1
	l10,9.3C44.7,49.2,44.8,50.1,44.3,50.7z"/>
<path fill="#F99191" d="M8.4,9.2c0-4.1,3.3-7.4,7.4-7.4s7.4,3.3,7.4,7.4s-3.3,7.4-7.4,7.4S8.4,13.3,8.4,9.2"/>
<path fill="#F99191" d="M8.4,23.6c0-9.4,7.6-17,17-17s17,7.6,17,17s-7.6,17-17,17S8.4,33,8.4,23.6"/>
<circle fill="none" stroke="#434443" stroke-width="3" cx="48" cy="37.2" r="31.7"/>
</svg>
