<?xml version="1.0" encoding="utf-8"?>
<!-- Generator: Adobe Illustrator 23.0.1, SVG Export Plug-In . SVG Version: 6.00 Build 0)  -->
<svg version="1.1" id="Layer_1" xmlns="http://www.w3.org/2000/svg" xmlns:xlink="http://www.w3.org/1999/xlink" x="0px" y="0px"
	 viewBox="0 0 100 46" style="enable-background:new 0 0 100 46;" xml:space="preserve">
<g>
	<path style="fill:#FF8A63;" d="M72.76,21.85v-8.42c0-0.81,0.65-1.46,1.46-1.46h5.9c0.81,0,1.46,0.65,1.46,1.46v8.42
		c0,0.81-0.65,1.46-1.46,1.46h-5.9C73.41,23.31,72.76,22.66,72.76,21.85z"/>
	<rect x="76.54" y="14.49" style="fill:#3F3D56;" width="2.52" height="1.26"/>
	<rect x="76.54" y="11.97" style="fill:#3F3D56;" width="1.26" height="2.52"/>
	<rect x="76.54" y="19.53" style="fill:#3F3D56;" width="1.26" height="2.52"/>
</g>
<g>
	<path style="fill:#FF8A63;" d="M69.99,22.05h-8.38c-0.81,0-1.46-0.65-1.46-1.46v-5.9c0-0.81,0.65-1.46,1.46-1.46h8.42
		c0.81,0,1.46,0.65,1.46,1.46v5.79C71.5,21.35,70.82,22.05,69.99,22.05L69.99,22.05z"/>
	<rect x="65.2" y="14.49" style="fill:#3F3D56;" width="2.52" height="1.26"/>
	<rect x="60.16" y="17.01" style="fill:#3F3D56;" width="2.52" height="1.26"/>
	<rect x="68.98" y="17.01" style="fill:#3F3D56;" width="2.52" height="1.26"/>
</g>
<path style="fill:#E6E6E6;" d="M3.91,36.18l-1.4-8.17c-0.6-3.49,1.99-6.73,5.53-6.91l19.76-1.02l4.7-7.75
	c0.61-1,1.69-1.61,2.87-1.61h13.5c0,0,2,1.66,2.14,2.73l0.35,6.09l34.27,0.1l4.26,14.03l-3.95-0.19l0.2,4.26l-5.17,0.2l-1.72-4.87
	c-0.31-0.87-1.6-1.85-3-2.68c-3.41-2.05-7.92-1.47-10.43,1.62c-0.52,0.64-0.88,1.29-0.99,1.91l-0.78,4.53l-38.63-0.63l-5.16-7.22
	c-1.52-1.66-8.72-2.27-9.37,0l-3.89,5.74L3.91,36.18L3.91,36.18z"/>
<path style="fill:#FFFFFF;" d="M46.11,16.16l1.13,5.35l-14.43,0.31l3.05-6.54c0.28-0.59,0.88-0.96,1.54-0.93l6.91,0.3
	C45.19,14.68,45.93,15.31,46.11,16.16L46.11,16.16z"/>
<polygon style="fill:#FFFFFF;" points="30.86,21.41 33.74,13.99 32.99,13.23 28.28,20.38 29.24,21.82 "/>
<circle style="fill:#3F3D56;" cx="72.19" cy="38.72" r="6.8"/>
<path style="fill:#FFFFFF;" d="M67.5,38.72c0-2.59,2.1-4.69,4.69-4.69c2.59,0,4.69,2.1,4.69,4.69c0,2.59-2.1,4.69-4.69,4.69
	C69.6,43.41,67.5,41.31,67.5,38.72z M67.6,38.72c0,2.53,2.06,4.59,4.59,4.59s4.59-2.06,4.59-4.59s-2.06-4.59-4.59-4.59
	S67.6,36.19,67.6,38.72z"/>
<path style="fill:#E6E6E6;" d="M68.17,38.72c0,2.22,1.8,4.02,4.02,4.02c2.22,0,4.02-1.8,4.02-4.02c0-2.22-1.8-4.02-4.02-4.02
	C69.97,34.7,68.17,36.5,68.17,38.72z M74.8,37.76l-0.71,0.46l-0.27-0.42L74.8,37.76z M73.71,40.12l0.19-0.46l0.6,0.79L73.71,40.12z
	 M72.26,42.22l0.5-0.85v0.85H72.26z M72.26,37.18l0.5-0.85v0.85H72.26z M69.66,40.44l0.6-0.79l0.19,0.46L69.66,40.44z M69.37,37.76
	l0.99,0.04l-0.27,0.42L69.37,37.76z"/>
<circle style="fill:#3F3D56;" cx="15.09" cy="38.72" r="6.8"/>
<path style="fill:#FFFFFF;" d="M10.4,38.72c0-2.59,2.1-4.69,4.69-4.69s4.69,2.1,4.69,4.69c0,2.59-2.1,4.69-4.69,4.69
	S10.4,41.31,10.4,38.72z M10.5,38.72c0,2.53,2.06,4.59,4.59,4.59s4.59-2.06,4.59-4.59s-2.06-4.59-4.59-4.59S10.5,36.19,10.5,38.72z"
	/>
<path style="fill:#E6E6E6;" d="M11.07,38.72c0,2.22,1.8,4.02,4.02,4.02s4.02-1.8,4.02-4.02c0-2.22-1.8-4.02-4.02-4.02
	S11.07,36.5,11.07,38.72z M17.7,37.76l-0.71,0.46l-0.27-0.42L17.7,37.76z M16.62,40.12l0.19-0.46l0.6,0.79L16.62,40.12z
	 M14.28,42.22l0.5-0.85v0.85H14.28z M14.28,37.18l0.5-0.85v0.85H14.28z M12.57,40.44l0.6-0.79l0.19,0.46L12.57,40.44z M12.27,37.76
	l0.99,0.04l-0.27,0.42L12.27,37.76z"/>
<rect x="43.77" y="23.31" style="fill:#3F3D56;" width="3.78" height="1.26"/>
<g>
	<path style="fill:#F2F2F2;" d="M98.68,40.43c-0.04-0.11-0.31-0.06-0.34-0.16c-0.03-0.1,0.24-0.18,0.44-0.46
		c0.04-0.05,0.27-0.37,0.18-0.5c-0.17-0.25-1.34,0.38-1.62,0.02c-0.06-0.08-0.09-0.21-0.27-0.46c-0.07-0.1-0.12-0.15-0.18-0.15
		c-0.08,0-0.11,0.1-0.23,0.28c-0.19,0.27-0.25,0.24-0.38,0.46c-0.09,0.16-0.1,0.27-0.17,0.28c-0.09,0.01-0.13-0.2-0.25-0.2
		c-0.12-0.01-0.23,0.19-0.29,0.35c-0.11,0.3-0.04,0.52-0.03,0.75c0.02,0.25-0.02,0.6-0.29,1.07l-2.51,4.01
		c0.54-0.82,2.07-3.04,2.69-3.86c0.18-0.24,0.37-0.47,0.66-0.52c0.28-0.04,0.63,0.1,1.11,0.09c0.06,0,0.21-0.01,0.25-0.09
		c0.03-0.07-0.05-0.13-0.02-0.19c0.04-0.09,0.21-0.05,0.44-0.11c0.17-0.04,0.28-0.11,0.37-0.17C98.3,40.84,98.73,40.57,98.68,40.43
		L98.68,40.43z"/>
	<path style="fill:#F2F2F2;" d="M92.1,41.36c-0.07-0.01-0.12,0.14-0.18,0.12c-0.06-0.02-0.02-0.17-0.1-0.35
		c-0.01-0.03-0.1-0.24-0.2-0.23c-0.17,0.01-0.2,0.77-0.46,0.8c-0.06,0.01-0.13-0.02-0.3,0c-0.07,0.01-0.11,0.02-0.12,0.04
		c-0.02,0.04,0.02,0.08,0.07,0.2c0.08,0.17,0.04,0.19,0.12,0.32c0.05,0.09,0.1,0.13,0.09,0.16c-0.02,0.05-0.13,0.01-0.17,0.06
		c-0.04,0.05,0.03,0.17,0.09,0.24c0.11,0.14,0.24,0.17,0.36,0.23c0.13,0.06,0.29,0.19,0.44,0.45l1.24,2.39
		c-0.24-0.5-0.9-1.9-1.12-2.43c-0.06-0.16-0.13-0.32-0.06-0.48c0.06-0.15,0.23-0.28,0.36-0.52c0.02-0.03,0.06-0.11,0.03-0.15
		c-0.02-0.04-0.08-0.01-0.1-0.05c-0.03-0.04,0.04-0.12,0.08-0.25c0.03-0.09,0.03-0.17,0.03-0.23C92.19,41.67,92.19,41.38,92.1,41.36
		L92.1,41.36L92.1,41.36z"/>
	<path style="fill:#F2F2F2;" d="M93.34,41.94l0.04-0.36l0.02-0.02c0.11-0.1,0.18-0.22,0.21-0.33c0-0.02,0.01-0.04,0.01-0.06
		c0.01-0.07,0.03-0.17,0.1-0.26c0.04-0.05,0.15-0.17,0.25-0.13c0.03,0.01,0.05,0.03,0.06,0.05c0,0,0.01-0.01,0.01-0.01
		c0.05-0.05,0.08-0.06,0.11-0.08c0.02-0.01,0.05-0.03,0.09-0.06c0.02-0.01,0.03-0.03,0.05-0.04c0.04-0.03,0.09-0.07,0.15-0.06
		c0.07,0.02,0.1,0.09,0.11,0.13c0.03,0.08,0.04,0.13,0.04,0.17c0,0.01,0,0.03,0.01,0.03c0.02,0.04,0.21,0.05,0.28,0.05
		c0.16,0.01,0.31,0.02,0.34,0.13c0.02,0.08-0.03,0.17-0.16,0.27c-0.04,0.03-0.08,0.05-0.12,0.07c0.02,0.02,0.04,0.05,0.04,0.09l0,0
		c0,0.09-0.09,0.16-0.27,0.21c-0.05,0.01-0.11,0.03-0.19,0.02c-0.04,0-0.07-0.01-0.1-0.01c0,0.02-0.01,0.03-0.03,0.05
		c-0.04,0.05-0.11,0.06-0.2,0.03c-0.1-0.03-0.18-0.07-0.25-0.1c-0.06-0.03-0.11-0.05-0.16-0.06c-0.08-0.01-0.16,0.04-0.25,0.11
		L93.34,41.94L93.34,41.94L93.34,41.94z"/>
	<path style="fill:#F2F2F2;" d="M93.99,39.89l-0.36,0.05l-0.03-0.02c-0.13-0.08-0.25-0.12-0.37-0.12c-0.02,0-0.04,0-0.06,0
		c-0.07,0.01-0.17,0.01-0.28-0.03c-0.06-0.03-0.2-0.1-0.19-0.21c0-0.03,0.02-0.06,0.03-0.07c0,0-0.01,0-0.01-0.01
		c-0.06-0.03-0.08-0.06-0.1-0.09c-0.02-0.02-0.04-0.04-0.08-0.07c-0.02-0.01-0.04-0.03-0.05-0.03c-0.04-0.03-0.09-0.07-0.1-0.13
		c0-0.07,0.06-0.11,0.1-0.14c0.07-0.05,0.12-0.07,0.15-0.09c0.01-0.01,0.03-0.01,0.03-0.01c0.03-0.02-0.01-0.22-0.02-0.29
		c-0.03-0.16-0.06-0.3,0.04-0.36c0.07-0.04,0.17-0.02,0.3,0.08c0.04,0.03,0.07,0.06,0.1,0.1c0.01-0.03,0.04-0.05,0.07-0.06l0,0
		c0.09-0.03,0.18,0.05,0.27,0.21c0.02,0.04,0.05,0.1,0.07,0.18c0.01,0.04,0.01,0.07,0.01,0.1c0.02,0,0.03,0,0.05,0.01
		c0.06,0.03,0.08,0.09,0.08,0.18c0,0.1-0.02,0.19-0.03,0.26c-0.01,0.07-0.02,0.12-0.02,0.17c0.01,0.08,0.08,0.14,0.17,0.21
		L93.99,39.89L93.99,39.89L93.99,39.89z"/>
	<path style="fill:#F2F2F2;" d="M94.03,38.82l0.04-0.36l0.02-0.02c0.11-0.1,0.18-0.22,0.21-0.33c0-0.02,0.01-0.04,0.01-0.06
		c0.01-0.07,0.03-0.17,0.1-0.26c0.04-0.05,0.15-0.17,0.25-0.13c0.03,0.01,0.05,0.03,0.06,0.05c0,0,0.01-0.01,0.01-0.01
		c0.05-0.05,0.08-0.06,0.11-0.08c0.02-0.01,0.05-0.03,0.09-0.06c0.02-0.01,0.03-0.03,0.05-0.04c0.04-0.03,0.09-0.07,0.15-0.06
		c0.07,0.02,0.1,0.09,0.11,0.13c0.03,0.08,0.04,0.13,0.04,0.17c0,0.01,0,0.03,0.01,0.03c0.02,0.04,0.21,0.05,0.28,0.05
		c0.16,0.01,0.31,0.02,0.34,0.13c0.02,0.08-0.03,0.17-0.16,0.27c-0.04,0.03-0.08,0.05-0.12,0.07c0.02,0.02,0.04,0.05,0.04,0.09l0,0
		c0,0.09-0.09,0.16-0.27,0.21c-0.05,0.01-0.11,0.03-0.19,0.02c-0.04,0-0.07-0.01-0.1-0.01c0,0.02-0.01,0.03-0.03,0.05
		c-0.04,0.05-0.11,0.06-0.2,0.03c-0.1-0.03-0.18-0.07-0.25-0.1c-0.06-0.03-0.11-0.05-0.16-0.06c-0.08-0.01-0.16,0.04-0.25,0.11
		L94.03,38.82L94.03,38.82L94.03,38.82z"/>
	<path style="fill:#F2F2F2;" d="M92.87,45.72l-1.21-0.06l0-0.09v0.09l1.26-0.01v-0.06c-0.21-0.17-0.22-0.67-0.15-1.44
		c0.05-0.54,0.13-1.09,0.24-1.63c0.11-0.54,0.23-0.95,0.32-1.27c0.07-0.24,0.14-0.48,0.21-0.7c0.19-0.6,0.36-1.18,0.47-1.83
		c0.02-0.15,0.08-0.45-0.03-0.8c-0.06-0.21-0.16-0.4-0.31-0.58l0.14-0.11c0.16,0.2,0.27,0.41,0.34,0.64
		c0.11,0.4,0.06,0.73,0.03,0.88c-0.11,0.66-0.29,1.24-0.48,1.85c-0.07,0.23-0.14,0.46-0.21,0.7c-0.09,0.32-0.21,0.72-0.32,1.26
		c-0.11,0.54-0.19,1.08-0.24,1.61c-0.07,0.76-0.06,1.26-0.06,1.42C92.9,45.67,92.9,45.69,92.87,45.72L92.87,45.72L92.87,45.72z"/>
	<path style="fill:#F2F2F2;" d="M93.31,37.53c-0.01,0-0.01,0-0.02-0.01c-0.15-0.04-0.26-0.16-0.35-0.35
		c-0.04-0.09-0.05-0.19-0.07-0.38c0-0.03-0.02-0.18,0-0.38c0.01-0.13,0.02-0.18,0.06-0.22c0.04-0.05,0.09-0.07,0.15-0.08
		c0-0.02,0.01-0.03,0.02-0.05c0.05-0.07,0.12-0.04,0.16-0.02c0.02,0.01,0.05,0.02,0.08,0.02c0.05,0.01,0.07,0,0.12-0.01
		c0.04-0.01,0.09-0.03,0.16-0.02c0.14,0,0.24,0.06,0.27,0.08c0.17,0.1,0.23,0.27,0.3,0.46c0.01,0.04,0.06,0.18,0.07,0.36
		c0.01,0.13-0.01,0.18-0.03,0.22c-0.04,0.08-0.1,0.11-0.25,0.19c-0.16,0.08-0.24,0.12-0.3,0.14C93.52,37.53,93.42,37.56,93.31,37.53
		L93.31,37.53L93.31,37.53z"/>
</g>
<g>
	<g>
		<polygon style="fill:#FFB6B6;" points="47.55,44.74 48.86,44.74 49.48,39.7 47.55,39.7 		"/>
		<path style="fill:#2F2E41;" d="M52.73,45.11L52.73,45.11c0.04,0.08,0.07,0.32,0.07,0.4l0,0c0,0.27-0.22,0.49-0.49,0.49l-4.43,0
			c-0.18,0-0.33-0.15-0.33-0.33v-0.18c0,0-0.22-0.55,0.23-1.24c0,0,0.56,0.54,1.4-0.3l0.25-0.45l1.79,1.31l0.99,0.12
			C52.43,44.95,52.62,44.92,52.73,45.11L52.73,45.11L52.73,45.11z"/>
	</g>
	<g>
		<polygon style="fill:#FFB6B6;" points="41.25,44.74 42.56,44.74 43.18,39.7 41.25,39.7 		"/>
		<path style="fill:#2F2E41;" d="M46.43,45.11L46.43,45.11c0.04,0.08,0.07,0.32,0.07,0.4l0,0c0,0.27-0.22,0.49-0.49,0.49l-4.43,0
			c-0.18,0-0.33-0.15-0.33-0.33v-0.18c0,0-0.22-0.55,0.23-1.24c0,0,0.56,0.54,1.4-0.3l0.25-0.45l1.79,1.31l0.99,0.12
			C46.13,44.95,46.32,44.92,46.43,45.11L46.43,45.11L46.43,45.11z"/>
	</g>
	<polygon style="fill:#FFB6B6;" points="47.15,7.1 47.42,9.63 44.25,9.36 44.79,7.01 	"/>
	<polygon style="opacity:0.1;enable-background:new    ;" points="47.15,7.1 47.42,9.63 44.25,9.36 44.79,7.01 	"/>
	<circle style="fill:#FFB6B6;" cx="46.02" cy="5.33" r="2.08"/>
	<polygon style="fill:#2F2E41;" points="47.37,8.85 50.86,10.89 49.72,16.41 50.5,23.84 49.96,42.04 46.61,41.68 46.15,26.19 
		43.53,42.22 40.27,42.22 40.81,24.92 42.44,17.59 41.44,9.62 44.48,8.67 	"/>
	<path style="fill:#2F2E41;" d="M47.51,5.92c0,0,0.18-0.63,0.59-0.59s0.5-0.32,0.41-0.5c-0.09-0.18-0.27-1.09-0.27-1.09
		s0.09-0.63-0.45-0.72c-0.54-0.09-0.72-0.18-0.81-0.36c-0.09-0.18-1.45-0.36-1.9-0.09c-0.45,0.27-0.81,0.79-1.13,0.94
		s-0.59,0.42-0.41,0.87c0.18,0.45,0.44,1.34,0.44,1.34s0.46-0.16,0.55,0.11c0.09,0.27-0.27-0.09,0.18-0.81
		c0.45-0.72,0.45-1.45,1.18-1.18c0.72,0.27,1.54,0.18,1.45,0.72C47.24,5.11,47.51,5.92,47.51,5.92L47.51,5.92z"/>
	<path id="uuid-2f48dadd-bd50-474e-b6bc-efb589732da4-33_1_" style="fill:#FFB6B6;" d="M49.06,21.95c-0.44,0.46-0.55,1.06-0.26,1.34
		s0.89,0.13,1.32-0.33c0.18-0.18,0.31-0.4,0.38-0.65l1.82-1.98l-0.95-0.84l-1.7,2.04C49.45,21.62,49.23,21.77,49.06,21.95z"/>
	<polygon style="fill:#2F2E41;" points="50.82,10.58 53.89,15.81 54.35,18.2 51.39,21.95 50.14,20.36 51.62,18.2 49.23,13.99 	"/>
	<g>
		<path style="fill:#FF8A63;" d="M42.51,21.61v-6.68c0-0.94,0.76-1.7,1.7-1.7h9.2c0.94,0,1.7,0.76,1.7,1.7v6.68
			c0,0.94-0.76,1.7-1.7,1.7h-9.2C43.27,23.31,42.51,22.55,42.51,21.61z"/>
		<rect x="46.29" y="17.01" style="fill:#3F3D56;" width="3.78" height="1.26"/>
		<rect x="47.55" y="22.05" style="fill:#3F3D56;" width="2.52" height="1.26"/>
		<rect x="47.55" y="13.23" style="fill:#3F3D56;" width="2.52" height="1.26"/>
	</g>
	<g>
		<path id="uuid-f6ce86b9-37cf-4878-a476-c93c5a2c7b27-34_1_" style="fill:#FFB6B6;" d="M43.15,20.78c0.44,0.46,0.55,1.06,0.26,1.34
			c-0.29,0.28-0.89,0.13-1.32-0.33c-0.18-0.18-0.31-0.4-0.38-0.65l-1.82-1.98l0.95-0.84l1.7,2.04
			C42.77,20.45,42.98,20.59,43.15,20.78z"/>
		<polygon style="fill:#2F2E41;" points="41.39,9.41 38.32,14.63 37.87,17.02 40.82,20.77 42.07,19.18 40.59,17.02 42.98,12.82 		
			"/>
	</g>
</g>
<ellipse style="fill:#E6E6E6;" cx="3.24" cy="31.91" rx="2.78" ry="2.42"/>
</svg>
